<svg xmlns="http://www.w3.org/2000/svg" xmlns:xlink="http://www.w3.org/1999/xlink" version="1.1" x="0px" y="0px" width="300px" height="125px" viewBox="0 0 300 125" enable-background="new 0 0 300 125" xml:space="preserve"><g><g><path fill="#4B4B62" d="M32.252 64.592c-1.83-1.294-6-3.132-11.579-3.132c-10.099 0-13.68 6.359-13.68 11.5 c0 7.1 4.2 10.7 13.3 14.552c10.717 4.4 16.4 9.7 16.4 19.427c0 10.013-7.32 18.123-21.085 18.1 c-5.75 0-12.284-1.83-15.592-4.266l1.833-4.532c3.657 2.5 8.8 4.3 14.2 4.262c9.487 0 15.148-5.315 15.148-13.058 c0-7.244-3.654-11.596-12.791-15.25C8.218 88.5 1.6 82.9 1.6 73.75c0-9.758 8.011-16.813 19.41-16.813 c6.086 0 10.8 1.6 13.1 3.039L32.252 64.592z"/><path fill="#4B4B62" d="M45.418 68.346l5.307-1.924v10.547h12.902v4.267H50.725v29.702c0 6 1.8 9.7 6.7 9.7 c2.35 0 3.917-0.365 5.147-0.783l0.521 4.181c-1.488 0.599-3.654 1.043-6.537 1.043c-9.763 0-11.146-7.662-11.146-14.812V81.235 h-7.682v-4.267h7.682V68.346z"/><path fill="#4B4B62" d="M104.475 112.254c0 4.4 0.2 8.3 0.4 11.844h-4.963l-0.33-8.025h-0.283 c-2.254 4.105-7.313 9.072-15.582 9.072c-6.359 0-15.681-3.306-15.681-20.475V76.969h5.405v26.557 c0 9.9 3 17 11.8 16.997c6.182 0 13.851-5.052 13.851-14.193V76.874h5.398V112.254z"/><path fill="#4B4B62" d="M151.945 112.945c0 3.6 0.2 7.9 0.4 11.152h-4.878l-0.345-8.627h-0.273 c-2.36 5.147-7.844 9.674-16.201 9.674c-11.33 0-19.855-9.5-19.855-23.881c0-15.75 9.486-25.426 20.822-25.426 c7.57 0 12.5 3.9 14.7 8.021h0.181V54.587h5.388V112.945z M146.557 95.691c0-9.657-6.975-15.411-14.374-15.411 c-9.77 0-15.865 8.888-15.865 20.638c0 10.4 5.1 19.8 15.6 19.789c9.763 0 14.638-9.074 14.638-15.598V95.691z"/><path fill="#4B4B62" d="M167.198 124.098h-5.404V76.969h5.404V124.098z"/><path fill="#4B4B62" d="M217.111 100.053c0 17.594-11.761 25.092-22.122 25.092c-12.116 0-21.451-9.236-21.451-24.227 c0-16.188 10.372-25.08 22.053-25.08C208.572 75.8 217.1 85.8 217.1 100.053z M195.424 80.2 c-11.419 0-16.383 10.629-16.383 20.471c0 11.2 6.9 20.1 16.1 20.131c9.408 0 16.451-8.891 16.451-20.474 C211.607 91.7 207 80.2 195.4 80.191z"/><path fill="#FF6C2C" d="M258.051 124.098h-37.796v-3.305l5.911-6.359c16.823-16.912 24.65-26.477 24.65-37.643 c0-7.225-3.034-14.369-13.33-14.369c-5.211 0-10.014 2.869-13.236 5.568l-2.004-3.654c4.006-3.663 9.67-6.448 16.286-6.448 c13.067 0 17.8 9.9 17.8 18.124c0 12.625-8.897 23.172-24.045 38.33l-4.967 5.221v0.184h30.742V124.098z"/><path fill="#FF6C2C" d="M290.625 124.098h-5.215v-18.914h-29.176v-3.383l29.432-42.778h4.959v41.896h9.406v4.266h-9.406V124.098z M262.061 100.918h23.35V75.324c0-3.315 0.093-6.537 0.333-9.596l-0.333-0.079c-2.014 3.828-3.492 6.175-5.062 8.8 l-18.287 26.312V100.918z"/></g><g><path fill="#FF6C2C" d="M170.326 11.448v11.484h19.959c4.895 0 8.9 4 8.9 8.873v21.589h13.601 c6.214 0 11.319-5.105 11.319-11.329V11.448c0-6.221-5.089-11.314-11.319-11.314h-31.118 C175.447 0.1 170.3 5.2 170.3 11.448z"/><path fill="#FF9F36" d="M184.668 31.077c3.498 0 6.4 2.9 6.4 6.362v17.153c0 3.499-2.863 6.362-6.361 6.362h-17.46 c-3.499 0-6.362-2.863-6.362-6.362V37.439c0-3.499 2.863-6.362 6.362-6.362H184.668z"/></g></g></svg>